<svg width="400" height="400" xmlns="http://www.w3.org/2000/svg">
 <!-- Created with Method Draw - http://github.com/duopixel/Method-Draw/ -->

 <g>
  <title>background</title>
  <rect fill="#ffffff" id="canvas_background" height="402" width="402" y="-1" x="-1"/>
  <g display="none" overflow="visible" y="0" x="0" height="100%" width="100%" id="canvasGrid">
   <rect fill="url(#gridpattern)" stroke-width="0" y="0" x="0" height="100%" width="100%"/>
  </g>
 </g>
 <g>
  <title>Layer 1</title>
  <g stroke="null" id="svg_7">
   <g id="svg_4" fill="#000000" transform="matrix(0.03575026422790931,0,0,-0.03575026422790931,-5148.199204923759,-3220.8352432492175) ">
    <path stroke="null" id="svg_5" d="m147457.930893,-91298.03775c-623,-60 -1231,-313 -1717,-716c-127,-106 -338,-320 -442,-452c-331,-417 -549,-898 -646,-1426c-55,-297 -55,-313 -55,-2328c0,-1249 3,-1890 11,-1955c37,-339 185,-640 430,-877c233,-225 508,-356 829,-396c124,-15 338,-6 462,21c508,107 929,498 1073,995c58,202 56,133 64,2185l6,1885l27,50c64,122 198,182 340,152c20,-4 63,-27 96,-51c45,-34 67,-58 88,-103l29,-58l7,-725c9,-1001 6,-929 50,-1021c63,-128 193,-231 329,-260c30,-7 92,-9 142,-6c76,4 99,10 165,43c100,49 181,129 225,221l32,68l8,420c4,231 6,634 4,895c-4,506 -5,517 -59,680c-141,434 -525,767 -972,845c-114,19 -328,19 -442,0c-452,-79 -830,-412 -968,-853c-60,-191 -57,-87 -63,-2132c-4,-1572 -7,-1885 -19,-1939c-42,-187 -201,-334 -393,-363c-224,-33 -446,108 -520,329c-21,62 -21,66 -21,1900c0,1095 4,1893 10,1973c58,809 535,1507 1265,1851c290,137 586,201 930,202c359,0 644,-64 961,-218c676,-328 1129,-966 1228,-1730c13,-95 23,-135 50,-190c149,-312 543,-369 782,-112c62,66 85,107 109,192c40,136 -11,485 -122,830c-104,325 -286,672 -496,948c-525,692 -1349,1146 -2222,1227c-127,12 -470,11 -595,-1z"/>
    <path stroke="null" id="svg_6" d="m152957.930893,-91952.03775c-302,-48 -577,-190 -795,-409c-198,-199 -322,-433 -387,-732l-22,-99l-5,-1910l-6,-1910l-24,-53c-46,-101 -164,-182 -266,-182c-105,0 -215,72 -264,172l-31,63l-8,825l-8,825l-23,58c-72,184 -249,303 -446,300c-232,-4 -422,-159 -465,-378c-8,-44 -10,-295 -7,-915c3,-834 4,-857 25,-935c63,-239 171,-429 339,-597c241,-243 542,-368 882,-368c209,1 357,33 530,116c135,64 222,125 332,231c156,152 264,322 328,519c61,190 59,121 65,2164c6,2044 2,1908 67,2031c82,153 241,249 414,249c215,0 397,-144 460,-365c17,-56 17,-180 12,-1960c-5,-1599 -8,-1917 -21,-2010c-102,-758 -565,-1396 -1249,-1720c-295,-140 -596,-206 -943,-206c-644,0 -1241,275 -1662,766c-264,308 -440,684 -503,1075c-11,69 -24,152 -30,185c-25,142 -125,267 -267,338l-85,42l-116,0c-113,0 -118,-1 -193,-37c-126,-60 -213,-155 -259,-284c-43,-116 -22,-346 60,-666c289,-1132 1181,-2014 2316,-2288c255,-62 259,-63 704,-67c462,-5 516,0 809,72c1255,308 2193,1361 2367,2659c23,168 22,4169 0,4278c-98,468 -428,862 -870,1038c-228,91 -515,123 -755,85z"/>
   </g>
  </g>
 </g>
</svg>